<svg version="1.2" xmlns="http://www.w3.org/2000/svg" viewBox="0 0 2000 2000" width="2000" height="2000">
	<style>
		.s0 { fill: #f3f4f8 } 
	</style>
	<path id="G" class="s0" d="m1288.41 433.95c313.51 0 567.83 235.12 567.83 567.82 0 334.3-254.32 567.83-567.83 567.83-299.11 0-516.64-219.14-550.23-476.66v-142.35h612.61v145.55h-417.47c27.19 187.15 153.55 308.71 355.09 308.71 220.73 0 380.68-158.35 380.68-403.08 0-244.72-159.95-401.47-380.68-401.47-132.76 0-238.32 55.98-297.51 167.94h-219.13c84.78-217.53 284.71-334.29 516.64-334.29z"/>
	<path id="C" fill-rule="evenodd" class="s0" d="m965.77 336.01c110.27 0 214.36 22.59 305.71 66.5-8.81 0.08-16.38 0.24-20.48 0.48-7.97 0.46-21.47 1.57-30 2.47-8.53 0.9-22.7 2.76-31.5 4.14-8.8 1.38-23.42 4.06-32.5 5.95-9.08 1.89-23.25 5.25-31.5 7.47-8.25 2.22-21.08 5.89-28.5 8.16-7.42 2.28-19.8 6.49-27.5 9.37-7.7 2.88-20.53 8.02-28.5 11.43-7.97 3.4-22.6 10.26-32.5 15.23-9.9 4.97-25.87 13.77-35.5 19.56-9.62 5.78-22.9 14.14-29.5 18.56-6.6 4.43-17.62 12.31-24.5 17.52q-1.5 1.13-3.2 2.45c-231.79 22.23-394.93 200.15-394.93 474.31 0 274.76 163.84 454.49 396.43 476.31q1.16 0.88 2.2 1.67c6.6 4.96 16.28 12 21.5 15.63 5.23 3.63 17.83 11.63 28 17.78 10.17 6.15 30.2 16.95 44.5 23.99 14.3 7.04 33.2 15.61 42 19.04 8.8 3.42 23.2 8.6 32 11.5 8.8 2.89 22.75 7.1 31 9.35 8.25 2.25 21.97 5.65 30.5 7.56 8.53 1.9 23.83 4.82 34 6.48 10.17 1.66 24.8 3.7 32.5 4.54 7.7 0.85 19.85 1.99 27 2.54 5.17 0.4 17.15 0.75 29.99 0.91-91.6 43.86-196.04 66.31-306.72 66.31-366.39 0-663.61-272.92-663.61-663.61 0-388.81 297.22-663.6 663.61-663.6z"/>
</svg>